<svg xmlns="http://www.w3.org/2000/svg" version="1.1" xmlns:xlink="http://www.w3.org/1999/xlink" xmlns:svgjs="http://svgjs.dev/svgjs" width="2000" height="308" viewBox="0 0 2000 308"><g transform="matrix(1,0,0,1,0.7383670286610595,12.316343438132037)"><svg viewBox="0 0 363 56" data-background-color="#ffffff" preserveAspectRatio="xMidYMid meet" height="308" width="2000" xmlns="http://www.w3.org/2000/svg" xmlns:xlink="http://www.w3.org/1999/xlink"><g id="tight-bounds" transform="matrix(1,0,0,1,-0.13401361570197423,0.008600000000001273)"><svg viewBox="0 0 363.26802723140395 55.9828" height="55.9828" width="363.26802723140395"><g><svg viewBox="0 0 363.26802723140395 55.9828" height="55.9828" width="363.26802723140395"><g><svg viewBox="0 0 363.26802723140395 55.9828" height="55.9828" width="363.26802723140395"><g id="textblocktransform"><svg viewBox="0 0 363.26802723140395 55.9828" height="55.9828" width="363.26802723140395" id="textblock"><g><svg viewBox="0 0 363.26802723140395 55.9828" height="55.9828" width="363.26802723140395"><g><svg><g></g><g></g></svg></g><g><svg><g></g><g><svg></svg></g></svg></g><g id="text-0"><svg viewBox="0 0 363.26802723140395 55.9828" height="55.9828" width="363.26802723140395"><g><svg xmlns="http://www.w3.org/2000/svg" xmlns:xlink="http://www.w3.org/1999/xlink" version="1.1" x="0" y="0" viewBox="2.5717664954489403 20.05576649544894 95.00069744973837 62.67223350455106" enable-background="new 0 0 100 100" xml:space="preserve" height="55.9828" width="84.86062723140395" class="icon-dxe-0" data-fill-palette-color="accent" id="dxe-0"><g fill="#60a5fa" data-fill-palette-color="accent"><path d="M25.733 22.57A15.37 15.37 0 0 0 18.029 20.499C12.693 20.499 7.504 23.269 4.643 28.221 0.379 35.606 2.91 45.048 10.294 49.311L30.202 60.807 45.641 34.065zM29.449 57.994L11.324 47.528A13.3 13.3 0 0 1 5.09 39.404 13.3 13.3 0 0 1 6.427 29.25 13.43 13.43 0 0 1 18.03 22.558C20.363 22.558 22.671 23.178 24.705 24.353L42.83 34.818z" fill="#60a5fa" data-fill-palette-color="accent"></path><path d="M95.502 27.778C91.238 20.394 81.796 17.863 74.41 22.127L54.502 33.621 69.941 60.362 89.848 48.868C97.234 44.604 99.765 35.162 95.502 27.778M82.879 24.493C79.773 24.258 76.86 27.11 73.858 25.088 73.795 25.045 73.73 24.981 73.667 24.933L75.44 23.91C79.598 21.51 84.514 21.615 88.463 23.731 87.979 25.33 85.204 24.669 82.879 24.493" fill="#60a5fa" data-fill-palette-color="accent"></path><circle cx="49.283" cy="60.739" r="3.4" fill="#60a5fa" data-fill-palette-color="accent"></circle><circle cx="57.345" cy="69.487" r="2.9" fill="#60a5fa" data-fill-palette-color="accent"></circle><circle cx="58.546" cy="54.906" r="2.9" fill="#60a5fa" data-fill-palette-color="accent"></circle><circle cx="47.224" cy="71.031" r="2.4" fill="#60a5fa" data-fill-palette-color="accent"></circle><path d="M52.91 75.49A2.402 2.402 0 1 0 52.907 80.293 2.402 2.402 0 0 0 52.91 75.49" fill="#60a5fa" data-fill-palette-color="accent"></path><circle cx="40.362" cy="69.315" r="2.4" fill="#60a5fa" data-fill-palette-color="accent"></circle><circle cx="44.593" cy="80.326" r="2.4" fill="#60a5fa" data-fill-palette-color="accent"></circle><circle cx="41.735" cy="55.593" r="2.4" fill="#60a5fa" data-fill-palette-color="accent"></circle><circle cx="47.911" cy="47.701" r="2.4" fill="#60a5fa" data-fill-palette-color="accent"></circle></g></svg></g><g transform="matrix(1,0,0,1,98.07782723140396,0)"><svg width="265.1902" viewBox="2.2 -34 163.89000000000001 34.6" height="55.9828" data-palette-color="#60a5fa"><path d="M10.1 0L2.2 0 2.2-33.4 15.05-33.4Q19.4-33.4 22.83-32.55 26.25-31.7 28.23-29.45 30.2-27.2 30.2-23.05L30.2-23.05Q30.2-21.15 29.5-19.28 28.8-17.4 27.08-15.85 25.35-14.3 22.15-13.45L22.15-13.45 31.85 0 22.7 0 13.65-12.6 10.1-12.6 10.1 0ZM10.1-26.75L10.1-19.2 15.3-19.2Q18.1-19.2 19.98-19.93 21.85-20.65 21.85-22.95L21.85-22.95Q21.85-25.3 19.98-26.03 18.1-26.75 15.3-26.75L15.3-26.75 10.1-26.75ZM42.8 0L34.9 0 34.9-33.4 58.8-33.4 58.8-26.45 42.8-26.45 42.8-20.65 58.8-20.65 58.8-13.7 42.8-13.7 42.8 0ZM73.1 0L62.1 0 62.1-33.4 73.1-33.4Q77.2-33.4 80.72-32.58 84.25-31.75 86.87-29.83 89.5-27.9 90.97-24.68 92.45-21.45 92.45-16.7L92.45-16.7Q92.45-11.9 90.97-8.7 89.5-5.5 86.87-3.58 84.25-1.65 80.72-0.83 77.2 0 73.1 0L73.1 0ZM70-26.85L70-6.65 73.25-6.65Q75.4-6.65 77.37-7 79.35-7.35 80.92-8.38 82.5-9.4 83.4-11.4 84.3-13.4 84.3-16.7L84.3-16.7Q84.3-20 83.4-22.03 82.5-24.05 80.92-25.08 79.35-26.1 77.37-26.48 75.4-26.85 73.25-26.85L73.25-26.85 70-26.85ZM104.04 0L96.39 0 96.39-33.4 108.24-33.4 115.19-9.45 122.24-33.4 134.09-33.4 134.09 0 126.39 0 126.39-26.25 118.44 0 111.94 0 104.04-26.25 104.04 0ZM151.99 0.6L151.99 0.6Q146.54 0.6 142.82-1.63 139.09-3.85 137.54-7.85L137.54-7.85 144.74-10.45Q145.44-8.05 147.37-6.9 149.29-5.75 152.04-5.75L152.04-5.75Q153.49-5.75 154.84-6.08 156.19-6.4 157.09-7.18 157.99-7.95 157.99-9.25L157.99-9.25Q157.99-11 156.29-11.98 154.59-12.95 151.89-13.45L151.89-13.45 147.84-14.25Q145.14-14.8 142.82-15.93 140.49-17.05 139.09-18.93 137.69-20.8 137.69-23.65L137.69-23.65Q137.69-26.35 138.94-28.3 140.19-30.25 142.27-31.5 144.34-32.75 146.84-33.38 149.34-34 151.84-34L151.84-34Q154.54-34 157.07-33.25 159.59-32.5 161.59-30.93 163.59-29.35 164.64-26.75L164.64-26.75 157.49-24.15Q156.84-25.85 155.17-26.75 153.49-27.65 151.14-27.65L151.14-27.65Q148.84-27.65 147.32-26.83 145.79-26 145.79-24.45L145.79-24.45Q145.79-23.2 146.84-22.3 147.89-21.4 149.59-21.05L149.59-21.05 154.09-20.15Q156.14-19.75 158.24-19.13 160.34-18.5 162.12-17.48 163.89-16.45 164.99-14.75 166.09-13.05 166.09-10.45L166.09-10.45Q166.09-7.8 164.87-5.73 163.64-3.65 161.62-2.25 159.59-0.85 157.09-0.13 154.59 0.6 151.99 0.6Z" opacity="1" transform="matrix(1,0,0,1,0,0)" fill="#60a5fa" class="wordmark-text-0" data-fill-palette-color="primary"></path></svg></g></svg></g></svg></g></svg></g></svg></g></svg></g><defs></defs></svg><rect width="363.26802723140395" height="55.9828" fill="none" stroke="none" visibility="hidden"></rect></g></svg></g></svg>